<?xml version="1.0" encoding="UTF-8"?>
<svg width="364px" height="77px" viewBox="0 0 364 77" version="1.1" xmlns="http://www.w3.org/2000/svg" xmlns:xlink="http://www.w3.org/1999/xlink">
    <title>DMS</title>
    <desc>Created with Sketch.</desc>
    <g id="Page-1" stroke="none" stroke-width="1" fill="none" fill-rule="evenodd">
        <g id="DMS" transform="translate(0.000000, -3.000000)">
            <path d="M0.1,4.9 L17.5,4.9 C42.2,4.9 56.8,18.7 56.8,41.8 C56.8,65.8 41.8,78.7 17.5,78.7 L0.1,78.7 L0.1,4.9 Z M18.7,68.5 C34.5,68.5 44.7,59.4 44.7,41.8 C44.7,24.8 34.5,15.2 18.7,15.2 L11.8,15.2 L11.8,68.4 L18.7,68.5 Z" id="形状" fill="#0091EA" fill-rule="nonzero"></path>
            <path d="M187.9,35.7 C173.4,32.3 169.9,29.8 169.9,24.1 L169.9,23.9 C169.9,19 174.5,15.1 182.3,15.1 C189.2,15.1 196.1,17.7 202.9,22.7 C202.9,22.7 208.2,26.1 209.6,28.2 L209.6,13.5 L209.6,12.6 C201.9,6.6 193.6,3.6 182.5,3.6 C167.4,3.6 156.6,12.4 156.6,25 L156.6,25.2 C156.6,38.8 165.7,43.5 181.9,47.3 C196,50.5 199,53.3 199,58.6 L199,58.8 C199,64.4 193.8,68.1 185.6,68.1 C181.2,68.1 177.3,67.4 173.7,66.1 C173.7,66.1 168.4,64.1 161.7,59.8 C161.5,59.7 161.3,59.5 161.1,59.4 C159.2,58.1 157.2,56.4 155.2,54.7 L155.2,65.9 L155.2,69.3 C164,76.3 174.3,79.7 185.2,79.7 C201.1,79.7 212.3,71.5 212.3,57.6 L212.3,57.4 C212.3,45.1 204,39.5 187.9,35.7 Z" id="路径" fill-opacity="0.784313725" fill="#03DAC6"></path>
            <polygon id="路径" fill="#0091EA" points="102.9 19.8 79.9 4.9 79.9 4.9 68.6 4.9 68.6 78.7 79.9 78.7 79.9 18.4 92.8 26.8"></polygon>
            <polygon id="路径" fill="#0091EA" points="128.3 36.4 122.2 32.4 112.1 39.4 128.3 50"></polygon>
            <polygon id="路径" fill-opacity="0.784313725" fill="#03DAC6" points="84.7 38.2 84.7 52.1 132.9 18.4 132.9 78.8 144.6 78.8 144.6 4.6 132.7 4.6"></polygon>
            <text id="DATA-MANAGEMENT-SYST" fill="#03DAC6" font-family="PingFangSC-Regular, PingFang SC" font-size="20" font-weight="normal">
                <tspan x="221" y="21">DATA</tspan>
                <tspan x="221" y="49">MANAGEMENT</tspan>
                <tspan x="221" y="77">SYSTEM</tspan>
            </text>
        </g>
    </g>
</svg>